<svg xmlns="http://www.w3.org/2000/svg" fill="none" viewBox="0 0 280 280"><path fill="#E3F329" d="M90.45 159.076H80.188l-3.139-7.55h-17.1l-2.859 7.55H47l15.417-38.13H73.46l16.988 38.13Zm-22.37-29.019-5.607 14.815h11.774l-6.167-14.815Zm59.639-9.111h8.297v38.13h-9.531v-23.817l-10.316 11.963h-1.457l-10.315-11.963v23.816h-9.532v-38.129h8.297l12.278 14.145 12.279-14.145Zm32.449 0c13.959 0 21.134 8.665 21.134 19.119 0 10.958-6.951 19.011-22.2 19.011h-15.81v-38.13h16.876Zm-7.345 31.141h6.222c9.587 0 12.447-6.486 12.447-12.078 0-6.542-3.533-12.075-12.559-12.075h-6.11v24.153Zm47.442-22.1L188.247 118H232v43.633l-12.019-11.986v-19.66h-19.716Zm-.014 2.402-12.374 12.339V162h17.319l12.373-12.339h-17.318v-17.272Z"/></svg>