<svg width="234" height="234" viewBox="0 0 234 234" fill="none" xmlns="http://www.w3.org/2000/svg">
<g clip-path="url(#clip0_15389_7695)">
<mask id="mask0_15389_7695" style="mask-type:luminance" maskUnits="userSpaceOnUse" x="40" y="103" width="28" height="28">
<path d="M40 103.637H67.3697V130.364H40V103.637Z" fill="white"/>
</mask>
<g mask="url(#mask0_15389_7695)">
<path d="M53.6832 129.56C46.5902 129.56 40.8242 123.926 40.8242 117.003C40.8242 110.08 46.5941 104.441 53.6832 104.441C60.7724 104.441 66.5422 110.077 66.5422 116.999C66.5422 123.922 60.7724 129.556 53.6832 129.556V129.56ZM53.6832 108.388C48.8181 108.388 44.8616 112.252 44.8616 117.003C44.8616 121.753 48.8181 125.617 53.6832 125.617C58.5471 125.617 62.5049 121.753 62.5049 117.003C62.5049 112.252 58.5483 108.388 53.6832 108.388Z" fill="#FD500A" fill-opacity="0.2"/>
<path d="M53.7109 122.58C58.7301 122.58 62.7995 120.066 62.7995 116.967C62.7995 113.867 58.7313 111.354 53.7109 111.354C48.6905 111.354 44.6211 113.867 44.6211 116.967C44.6211 120.066 48.6905 122.58 53.7109 122.58Z" fill="#FD500A" fill-opacity="0.4"/>
<path d="M53.6836 121.259C56.0937 121.259 58.047 119.351 58.047 116.998C58.047 114.646 56.0937 112.738 53.6836 112.738C51.2735 112.738 49.3203 114.646 49.3203 116.998C49.3203 119.353 51.2735 121.259 53.6836 121.259Z" fill="#FD500A"/>
<path d="M55.8926 115.786C56.755 115.786 57.4544 115.103 57.4544 114.262C57.4544 113.42 56.755 112.738 55.8926 112.738C55.0314 112.738 54.332 113.42 54.332 114.262C54.332 115.103 55.0314 115.786 55.8926 115.786Z" fill="#CA4009"/>
<path d="M47.4844 108.587C47.7667 108.101 47.9284 107.544 47.9284 106.946C47.9284 106.28 47.7372 105.673 47.3933 105.151L47.3817 105.136C42.9966 107.36 40 111.818 40 116.977V116.999C40 118.858 41.5567 120.365 43.4689 120.34C45.3374 120.314 46.8504 118.809 46.844 116.985C46.8434 116.816 46.8297 116.647 46.803 116.48C46.7882 116.384 46.7637 116.29 46.7298 116.2C46.4612 115.271 46.3255 114.309 46.3268 113.342C46.3268 111.632 46.7439 110.015 47.4844 108.587Z" fill="#FD500A"/>
<path d="M62.3127 110.945C62.8106 111.221 63.3817 111.378 63.9939 111.378C64.6446 111.382 65.2828 111.201 65.8329 110.856L65.8483 110.846C64.6806 108.662 62.9335 106.836 60.7956 105.566C58.6578 104.295 56.2105 103.628 53.7182 103.637H53.6964C51.7907 103.637 50.2481 105.156 50.2738 107.025C50.2994 108.892 51.842 110.326 53.7105 110.32C53.8863 110.32 54.0583 110.305 54.2277 110.28C54.3265 110.265 54.4202 110.241 54.5126 110.208C55.4658 109.945 56.4506 109.813 57.4399 109.815C59.1916 109.815 60.8471 110.222 62.3089 110.945" fill="#FD500A"/>
<path d="M59.8842 125.413C59.5933 125.912 59.4405 126.478 59.4414 127.055C59.4414 127.72 59.6313 128.327 59.9753 128.849L59.9881 128.864C64.372 126.64 67.3686 122.183 67.3686 117.023V117.001C67.3686 115.142 65.8119 113.635 63.8997 113.66C62.0312 113.686 60.5181 115.192 60.5245 117.017C60.5245 117.188 60.5399 117.356 60.5656 117.521C60.581 117.617 60.6067 117.71 60.6388 117.801C60.9031 118.708 61.0417 119.666 61.0417 120.658C61.0437 122.312 60.6468 123.942 59.8842 125.413Z" fill="#FD500A"/>
<path d="M45.0564 123.056C44.5422 122.771 43.9629 122.622 43.3739 122.623C42.7232 122.619 42.085 122.8 41.5349 123.145L41.5195 123.155C42.6869 125.338 44.4336 127.164 46.571 128.434C48.7084 129.705 51.1552 130.372 53.647 130.364H53.6676C55.5733 130.364 57.1159 128.843 57.0902 126.976C57.0645 125.109 55.522 123.674 53.6534 123.681C53.4776 123.681 53.3057 123.696 53.1375 123.72C53.04 123.735 52.9441 123.759 52.8514 123.793C51.8981 124.055 50.9133 124.187 49.9241 124.186C48.2346 124.189 46.5676 123.801 45.0551 123.055L45.0564 123.056Z" fill="#FD500A"/>
</g>
<path d="M84.9442 127.854C83.4466 127.854 82.1324 127.598 81.0044 127.085C79.875 126.571 78.9895 125.839 78.3479 124.89C77.7242 123.939 77.4021 122.807 77.3828 121.496H80.6527C80.672 122.56 81.0519 123.464 81.7911 124.205C82.5315 124.946 83.5723 125.317 84.916 125.317C86.1031 125.317 87.0271 125.041 87.688 124.49C88.3707 123.92 88.7108 123.198 88.7108 122.324C88.7108 121.62 88.5452 121.051 88.2141 120.613C87.9036 120.175 87.4647 119.814 86.9013 119.53C86.2921 119.219 85.6566 118.961 85.002 118.76C84.2833 118.531 83.5236 118.284 82.7253 118.018C81.1494 117.505 79.9623 116.84 79.1641 116.022C78.3851 115.205 77.9962 114.131 77.9962 112.802C77.977 111.68 78.2401 110.701 78.7842 109.865C79.3489 109.029 80.1279 108.382 81.1199 107.927C82.1324 107.451 83.3092 107.214 84.6529 107.214C85.976 107.214 87.1336 107.451 88.1269 107.927C89.1394 108.401 89.9274 109.067 90.4921 109.922C91.0567 110.758 91.348 111.737 91.3673 112.858H88.0986C88.0986 112.346 87.9626 111.861 87.6905 111.405C87.4042 110.916 86.9907 110.512 86.4932 110.235C85.967 109.931 85.3254 109.78 84.5669 109.78C83.5929 109.761 82.7856 109.997 82.1427 110.492C81.5203 110.986 81.2097 111.671 81.2097 112.545C81.2097 113.324 81.442 113.922 81.9104 114.34C82.3763 114.76 83.0192 115.111 83.8354 115.396C84.6542 115.662 85.5884 115.975 86.6395 116.337C87.6508 116.66 88.5568 117.05 89.3537 117.505C90.1277 117.938 90.7805 118.555 91.2531 119.301C91.7382 120.043 91.982 120.984 91.982 122.124C91.982 123.131 91.7189 124.071 91.194 124.947C90.6679 125.802 89.8799 126.505 88.8289 127.056C87.7778 127.588 86.4816 127.854 84.9442 127.854Z" fill="#FD500A"/>
<path d="M100.553 127.513V120.157L93.7812 107.557H97.2847L102.101 117.191L106.888 107.557H110.363L103.649 120.157V127.513H100.553Z" fill="#FD500A"/>
<path d="M113.797 127.513V107.557H116.892L127.14 122.58V107.557H130.234V127.513H127.14L116.892 112.487V127.51H113.797V127.513Z" fill="#FD500A"/>
<path d="M135.258 127.513V107.557H148.249V110.008H138.352V116.223H147.374V118.618H138.352V125.06H148.249V127.513H135.258Z" fill="#FD500A"/>
<path d="M151.79 127.513L158.096 117.42L151.73 107.557H155.263L160.081 115.025L164.575 107.557H168.049L161.715 117.563L168.138 127.512H164.605L159.759 119.986L155.262 127.512H151.788L151.79 127.513Z" fill="#FD500A"/>
<path d="M172.105 127.513V107.557H175.201V127.513H172.105Z" fill="#FD500A"/>
<path d="M186.964 127.854C185.466 127.854 184.152 127.598 183.023 127.085C181.895 126.571 181.009 125.839 180.366 124.89C179.744 123.939 179.423 122.807 179.402 121.496H182.672C182.692 122.56 183.071 123.464 183.812 124.205C184.551 124.946 185.592 125.317 186.936 125.317C188.123 125.317 189.047 125.041 189.709 124.49C190.39 123.92 190.73 123.198 190.73 122.324C190.73 121.62 190.565 121.051 190.234 120.613C189.923 120.175 189.484 119.814 188.921 119.53C188.312 119.219 187.677 118.961 187.023 118.76C186.303 118.531 185.543 118.284 184.745 118.018C183.169 117.505 181.982 116.84 181.184 116.022C180.405 115.205 180.016 114.131 180.016 112.802C179.997 111.68 180.26 110.701 180.804 109.865C181.368 109.029 182.147 108.382 183.139 107.927C184.152 107.451 185.329 107.214 186.672 107.214C187.996 107.214 189.154 107.451 190.146 107.927C191.159 108.401 191.947 109.067 192.512 109.922C193.076 110.758 193.368 111.737 193.387 112.858H190.117C190.117 112.346 189.981 111.861 189.709 111.405C189.422 110.916 189.009 110.512 188.511 110.235C187.987 109.931 187.344 109.78 186.585 109.78C185.611 109.761 184.804 109.997 184.162 110.492C183.539 110.986 183.228 111.671 183.228 112.545C183.228 113.324 183.462 113.922 183.929 114.34C184.396 114.76 185.037 115.111 185.855 115.396C186.672 115.662 187.607 115.975 188.658 116.337C189.669 116.66 190.575 117.05 191.372 117.505C192.146 117.938 192.798 118.555 193.27 119.301C193.756 120.043 194 120.984 194 122.124C194.004 123.119 193.731 124.095 193.212 124.947C192.686 125.802 191.898 126.505 190.847 127.056C189.796 127.588 188.502 127.854 186.964 127.854Z" fill="#FD500A"/>
</g>
<defs>
<clipPath id="clip0_15389_7695">
<rect width="154" height="28" fill="white" transform="translate(40 103)"/>
</clipPath>
</defs>
</svg>
