<svg width="234" height="234" viewBox="0 0 234 234" fill="none" xmlns="http://www.w3.org/2000/svg">
<path fill-rule="evenodd" clip-rule="evenodd" d="M58.2949 96.7943C56.2632 95.7353 53.8433 95.7353 51.8114 96.7943L37.7759 104.112C35.4561 105.321 34 107.725 34 110.342V123.771C34 126.392 35.4561 128.793 37.7759 130.002L51.8114 137.319C52.442 137.648 53.1081 137.874 53.791 138V128.428C53.791 122.845 49.2656 118.322 43.6861 118.322H39.0536V115.794H43.6861C49.268 115.794 53.791 111.268 53.791 105.687V101.054H56.3178V105.687C56.3178 111.27 60.8433 115.794 66.4226 115.794H76.1064V110.342C76.1064 107.722 74.6503 105.321 72.3304 104.112L58.2949 96.7943ZM76.1064 118.322H66.4226C60.8408 118.322 56.3178 122.848 56.3178 128.428V138C56.9983 137.876 57.6669 137.648 58.2973 137.319L72.3328 130.002C74.6526 128.793 76.1088 126.389 76.1088 123.771V118.319L76.1064 118.322Z" fill="#FD500A"/>
<path d="M105.47 109.409H102.814C102.684 109.409 102.567 109.492 102.527 109.616L98.8102 120.504C98.7173 120.78 98.3247 120.78 98.2319 120.504L94.5131 109.616C94.4703 109.492 94.356 109.409 94.2251 109.409H91.5722C91.3581 109.409 91.2082 109.623 91.2868 109.823L96.8685 124.616C96.8947 124.687 96.8947 124.761 96.8685 124.832L96.3809 126.134C95.9097 127.484 95.5599 127.955 94.1206 127.955H92.0814C91.9125 127.955 91.7768 128.09 91.7768 128.259V130.23C91.7768 130.399 91.9125 130.534 92.0814 130.534H95.1482C97.7013 130.534 98.6102 128.949 99.4002 126.779L105.755 109.823C105.829 109.623 105.684 109.409 105.47 109.409Z" fill="#FD500A"/>
<path d="M113.556 109.058C108.833 109.058 106.016 112.461 106.016 117.039C106.016 121.618 108.83 125.021 113.556 125.021C118.281 125.021 121.122 121.618 121.122 117.039C121.122 112.461 118.305 109.058 113.556 109.058ZM113.556 122.377C110.593 122.377 109.185 120.176 109.185 117.039C109.185 113.903 110.593 111.702 113.556 111.702C116.518 111.702 117.955 113.903 117.955 117.039C117.955 120.176 116.546 122.377 113.556 122.377Z" fill="#FD500A"/>
<path d="M136.3 109.409H133.831C133.662 109.409 133.526 109.545 133.526 109.714V117.857H133.495C133.495 121.613 130.769 122.289 129.593 122.289C127.364 122.289 126.395 120.88 126.395 118.914V109.716C126.395 109.547 126.26 109.411 126.091 109.411H123.652C123.483 109.411 123.348 109.547 123.348 109.716V119.24C123.348 122.381 125.077 125.018 128.775 125.018C130.909 125.018 132.477 124.026 133.507 122.679C133.552 122.622 133.643 122.65 133.643 122.724V124.361C133.643 124.53 133.778 124.666 133.947 124.666H136.298C136.467 124.666 136.603 124.53 136.603 124.361V109.716C136.603 109.547 136.467 109.411 136.298 109.411L136.3 109.409Z" fill="#FD500A"/>
<path d="M158.475 119.237H155.943C155.803 119.237 155.68 119.332 155.646 119.47C155.234 121.269 153.942 122.376 152.028 122.376C149.3 122.376 147.889 120.175 147.889 117.038C147.889 113.902 149.298 111.7 152.028 111.7C153.914 111.7 155.204 112.752 155.641 114.494C155.674 114.63 155.796 114.72 155.936 114.72H158.473C158.666 114.72 158.808 114.544 158.775 114.356C158.19 111.181 155.843 109.059 152.028 109.059C147.54 109.059 144.723 112.462 144.723 117.04C144.723 121.619 147.538 125.022 152.028 125.022C155.674 125.022 158.177 122.84 158.775 119.606C158.808 119.418 158.666 119.242 158.473 119.242V119.237H158.475Z" fill="#FD500A"/>
<path d="M167.907 109.058C163.184 109.058 160.367 112.461 160.367 117.039C160.367 121.618 163.184 125.021 167.907 125.021C172.63 125.021 175.476 121.618 175.476 117.039C175.476 112.461 172.659 109.058 167.907 109.058ZM167.907 122.377C164.945 122.377 163.534 120.176 163.534 117.039C163.534 113.903 164.943 111.702 167.907 111.702C170.872 111.702 172.307 113.903 172.307 117.039C172.307 120.176 170.898 122.377 167.907 122.377Z" fill="#FD500A"/>
<path d="M194.8 109.058C192.455 109.058 190.859 110.257 189.857 111.844C189.827 111.897 189.754 111.892 189.727 111.835C188.948 110.174 187.44 109.058 185.269 109.058C183.097 109.058 181.752 110.036 180.86 111.34C180.817 111.402 180.722 111.371 180.722 111.295V109.717C180.722 109.548 180.586 109.412 180.417 109.412H178.066C177.897 109.412 177.762 109.548 177.762 109.717V124.362C177.762 124.531 177.897 124.667 178.066 124.667H180.536C180.705 124.667 180.841 124.531 180.841 124.362V116.218C180.841 112.463 183.246 111.787 184.448 111.787C186.325 111.787 187.292 113.196 187.292 115.159V124.36C187.292 124.528 187.428 124.664 187.598 124.664H190.067C190.236 124.664 190.375 124.528 190.375 124.36V116.216C190.375 112.461 192.777 111.785 193.981 111.785C195.859 111.785 196.825 113.194 196.825 115.157V124.357C196.825 124.526 196.962 124.662 197.132 124.662H199.601C199.77 124.662 199.905 124.526 199.905 124.357V114.836C199.905 111.694 198.146 109.058 194.805 109.058H194.8Z" fill="#FD500A"/>
<path d="M142.966 121.737L141.379 120.821C141.315 120.785 141.237 120.785 141.172 120.821L139.585 121.737C139.521 121.773 139.48 121.842 139.48 121.916V123.748C139.48 123.822 139.521 123.891 139.583 123.926L141.17 124.843C141.203 124.859 141.239 124.871 141.272 124.871C141.305 124.871 141.344 124.862 141.374 124.843L142.961 123.926C143.026 123.891 143.064 123.819 143.064 123.748V121.916C143.064 121.842 143.026 121.773 142.961 121.737H142.966Z" fill="#FD500A"/>
</svg>
