<svg width="500" height="234" viewBox="0 0 500 234" fill="none" xmlns="http://www.w3.org/2000/svg">
<g clip-path="url(#clip0_16124_22882)">
<mask id="mask0_16124_22882" style="mask-type:luminance" maskUnits="userSpaceOnUse" x="92" y="91" width="317" height="52">
<path d="M409 91H92V143H409V91Z" fill="white"/>
</mask>
<g mask="url(#mask0_16124_22882)">
<path d="M118.572 98.0739C129.591 95.2054 139.642 93.3326 146.913 91.5836C147.265 91.501 147.188 90.98 146.825 91.0006C137.359 91.5062 109.049 93.0127 109.049 93.0127C92.7717 94.3128 89.7906 100.705 93.3255 105.648L99.7225 114.594C99.9088 114.857 100.323 114.723 100.328 114.403C100.385 107.562 104.531 101.737 118.577 98.0739H118.572Z" fill="#43CCFC"/>
<path d="M113.475 133.958C113.718 134.319 114.205 134.195 114.148 133.715C113.413 129.088 114.655 116.932 120.861 110.942C130.047 102.074 141.775 98.5809 152.753 92.7355C153.048 92.5756 152.877 92.1267 152.551 92.2093C144.907 94.1233 124.908 99.4167 118.164 102.172C110.328 105.376 99.8324 115.194 109.516 128.742L113.475 133.963V133.958Z" fill="#43CCFC"/>
<path d="M295.03 108.84C296.438 108.84 297.616 109.952 297.616 111.406C297.616 112.86 296.438 114 295.03 114C293.624 114 292.426 112.888 292.426 111.406C292.426 109.923 293.614 108.84 295.03 108.84ZM295.03 113.62C296.228 113.62 297.152 112.67 297.152 111.406C297.152 110.142 296.228 109.22 295.03 109.22C293.834 109.22 292.9 110.17 292.9 111.406C292.9 112.641 293.824 113.62 295.03 113.62ZM294.024 109.904H295.193C295.906 109.904 296.248 110.189 296.248 110.769C296.248 111.311 295.906 111.539 295.449 111.586L296.314 112.917H295.81L294.993 111.624H294.498V112.917H294.032V109.904H294.024ZM294.489 111.244H294.983C295.393 111.244 295.783 111.225 295.783 110.75C295.783 110.351 295.44 110.284 295.116 110.284H294.498L294.489 111.244Z" fill="#43CCFC"/>
<path d="M312.793 108.84H321.654C329.431 108.84 333.967 113.582 333.967 121.252C333.967 128.921 329.431 133.663 321.654 133.663H312.793V108.84ZM321.617 130.394C327.092 130.394 330.059 127.049 330.059 121.252C330.059 115.454 327.092 112.119 321.617 112.119H316.521V130.394H321.617Z" fill="#43CCFC"/>
<path d="M336.656 111.176C336.656 110.026 337.597 109.047 338.786 109.047C339.974 109.047 340.915 109.988 340.915 111.176C340.915 112.364 339.974 113.305 338.786 113.305C337.597 113.305 336.656 112.364 336.656 111.176ZM337.037 115.671H340.525V133.671H337.037V115.671Z" fill="#43CCFC"/>
<path d="M344.615 134.929H348.104C348.38 137.058 349.959 138.103 352.602 138.103C355.881 138.103 357.659 136.392 357.659 133.085V131.099C356.365 132.876 354.418 133.893 351.869 133.893C346.878 133.893 343.598 130.196 343.598 124.579C343.598 118.963 346.839 115.266 351.832 115.266C354.485 115.266 356.509 116.377 357.803 118.231V115.684H361.148V133.018C361.148 137.723 358.324 140.935 352.563 140.935C347.676 140.935 344.957 138.531 344.606 134.938L344.615 134.929ZM357.763 124.57C357.763 120.559 355.701 118.259 352.496 118.259C349.292 118.259 347.229 120.702 347.229 124.57C347.229 128.438 349.292 130.88 352.496 130.88C355.701 130.88 357.763 128.58 357.763 124.57Z" fill="#43CCFC"/>
<path d="M364.715 111.176C364.715 110.026 365.656 109.047 366.844 109.047C368.033 109.047 368.974 109.988 368.974 111.176C368.974 112.364 368.033 113.305 366.844 113.305C365.656 113.305 364.715 112.364 364.715 111.176ZM365.095 115.671H368.584V133.671H365.095V115.671Z" fill="#43CCFC"/>
<path d="M373.926 129.662V118.533H371.027V115.672H373.926V110.512H377.416V115.672H381.048V118.533H377.416V129.348C377.416 130.393 377.938 130.888 379.479 130.888H381.048V133.682C380.277 133.748 379.546 133.786 378.918 133.786C375.677 133.786 373.926 132.674 373.926 129.662Z" fill="#43CCFC"/>
<path d="M394.963 131.23C393.747 133.111 391.721 134.09 389.098 134.09C385.227 134.09 382.68 132.209 382.68 128.749C382.68 125.851 384.419 123.655 389.449 123.17L392.102 122.895C393.841 122.686 394.792 122.097 394.792 120.633C394.792 118.96 393.918 118.048 391.094 118.048C388.27 118.048 387.082 118.846 386.911 121.289H383.46C383.668 117.658 385.694 115.254 391.104 115.254C396.514 115.254 398.224 117.421 398.224 120.557V130.08C398.224 130.64 398.5 130.982 399.204 130.982H400.183V133.672C399.66 133.739 399.032 133.777 398.471 133.777C396.238 133.777 395.23 132.978 394.983 131.23H394.963ZM389.629 131.372C392.178 131.372 394.792 129.947 394.792 126.563V124.682C394.269 125.1 393.537 125.309 392.559 125.413L390.049 125.689C387.149 126.041 386.284 127.048 386.284 128.654C386.284 130.26 387.366 131.372 389.629 131.372Z" fill="#43CCFC"/>
<path d="M402.324 129.662V108.84H405.813V129.349C405.813 130.394 406.27 130.888 407.554 130.888H408.846V133.682C408.152 133.749 407.448 133.787 406.897 133.787C403.93 133.787 402.324 132.675 402.324 129.662Z" fill="#43CCFC"/>
<path d="M195.929 113.656V108.828H178.711V133.661H195.929V128.624H185.689V123.122H194.208V118.294H185.689V113.656H195.929Z" fill="#43CCFC"/>
<path d="M226.315 128.757H215.552V108.828H208.488V133.661H226.315V128.757Z" fill="#43CCFC"/>
<path d="M283.168 118.297C278.405 117.224 276.74 117.1 276.74 115.209C276.74 113.451 279.099 112.899 280.458 112.899C282.664 112.899 285.25 113.413 287.884 114.772L289.804 110.2C287.104 108.718 283.623 108.109 280.278 108.109C273.708 108.109 269.296 110.77 269.116 115.969C268.926 120.702 272.775 122.479 276.322 123.211C279.735 123.914 283.196 124.522 283.272 126.547C283.339 128.419 281.656 129.217 278.48 129.217C275.542 129.217 272.805 128.276 270.01 127.107L268.383 132.068C271.587 133.437 274.848 134.188 278.215 134.188C282.882 134.188 286.286 133.465 288.796 131.108C290.535 129.493 291.106 127.544 291.106 125.682C291.096 121.747 288.653 119.533 283.168 118.297Z" fill="#43CCFC"/>
<path d="M168.699 113.722V108.828H147.031V113.722H154.352V133.661H161.368V113.722H168.699Z" fill="#43CCFC"/>
<path d="M250.398 108.828V124.604C250.398 125.84 250.398 126.182 250.322 126.667C250.103 128.168 248.639 129.042 246.309 129.071C244.589 129.042 243.324 128.539 242.735 127.636C242.44 127.17 242.297 126.343 242.297 125.013V108.828H234.977V125.944C234.977 128.32 235.29 129.385 236.365 130.734C238.133 132.948 241.575 134.108 246.328 134.108C246.376 134.108 246.433 134.108 246.481 134.108C246.509 134.108 246.547 134.108 246.585 134.108C252.936 134.108 256.217 131.627 257.166 129.308C257.643 128.187 257.68 127.655 257.68 125.383V108.828H250.398Z" fill="#43CCFC"/>
</g>
</g>
<defs>
<clipPath id="clip0_16124_22882">
<rect width="317" height="52" fill="white" transform="translate(92 91)"/>
</clipPath>
</defs>
</svg>
