<svg width="225" height="80" viewBox="0 0 225 80" fill="none" xmlns="http://www.w3.org/2000/svg">
<rect width="225" height="80" fill="black"/>
<path d="M162.76 47.1797C162.12 47.1797 161.58 46.9664 161.14 46.5397C160.7 46.113 160.48 45.573 160.48 44.9197C160.48 44.2397 160.7 43.6997 161.14 43.2997C161.58 42.8864 162.12 42.6797 162.76 42.6797C163.4 42.6797 163.94 42.8864 164.38 43.2997C164.82 43.6997 165.04 44.2397 165.04 44.9197C165.04 45.573 164.82 46.113 164.38 46.5397C163.94 46.9664 163.4 47.1797 162.76 47.1797Z" fill="#E3F329"/>
<path d="M151.109 47L145.129 33H149.409L154.449 45.12H151.929L157.089 33H161.009L155.009 47H151.109Z" fill="#E3F329"/>
<path d="M137.206 38.42H143.706V41.38H137.206V38.42ZM137.486 43.94H144.806V47H133.566V33H144.546V36.06H137.486V43.94Z" fill="#E3F329"/>
<path d="M118.762 47V33H125.162C126.442 33 127.542 33.2067 128.462 33.62C129.395 34.0333 130.115 34.6333 130.622 35.42C131.128 36.1933 131.382 37.1133 131.382 38.18C131.382 39.2333 131.128 40.1467 130.622 40.92C130.115 41.68 129.395 42.2667 128.462 42.68C127.542 43.08 126.442 43.28 125.162 43.28H120.962L122.722 41.62V47H118.762ZM127.422 47L123.942 41.9H128.162L131.662 47H127.422ZM122.722 42.04L120.962 40.22H124.922C125.748 40.22 126.362 40.04 126.762 39.68C127.175 39.32 127.382 38.82 127.382 38.18C127.382 37.5267 127.175 37.02 126.762 36.66C126.362 36.3 125.748 36.12 124.922 36.12H120.962L122.722 34.3V42.04Z" fill="#E3F329"/>
<path d="M101.359 47L107.539 33H111.439L117.639 47H113.519L108.679 34.94H110.239L105.399 47H101.359ZM104.739 44.28L105.759 41.36H112.599L113.619 44.28H104.739Z" fill="#E3F329"/>
<path d="M88.7656 47V44.52L97.0056 34.74L97.4856 36.14H88.9456V33H101.006V35.48L92.7656 45.26L92.2856 43.86H101.306V47H88.7656Z" fill="#E3F329"/>
<path d="M72.0625 47L78.2425 33H82.1425L88.3425 47H84.2225L79.3825 34.94H80.9425L76.1025 47H72.0625ZM75.4425 44.28L76.4625 41.36H83.3025L84.3225 44.28H75.4425Z" fill="#E3F329"/>
<path d="M61.3984 47V33H65.3584V43.86H72.0384V47H61.3984Z" fill="#E3F329"/>
</svg>
